<?xml version="1.0" encoding="utf-8"?>
<!-- Generator: Adobe Illustrator 23.0.2, SVG Export Plug-In . SVG Version: 6.00 Build 0)  -->
<svg version="1.1" id="Layer_2" xmlns="http://www.w3.org/2000/svg" xmlns:xlink="http://www.w3.org/1999/xlink" x="0px" y="0px"
	 viewBox="0 0 566.93 566.93" enable-background="new 0 0 566.93 566.93" xml:space="preserve">
<g>
	<path fill="#FFFFFF" d="M68.65,348.26l-0.09-21.28v-0.37c-0.37-6.81-0.47-10.45-0.56-10.92l13.9-0.19
		c-0.09,1.12-0.09,1.68-0.28,12.97v0.84v36.02v0.56c0.19,12.23,0.19,12.88,0.28,14.37l-36.11-36.21l-0.09,18.38
		c0,2.05,0.09,3.64,0.75,14.84v0.47H33.29v-0.56l0.19-3.83v-3.73l-0.28-43.67v-0.47l-0.18-5.88l-0.09-5.41v-0.56L68.65,348.26z"/>
	<path fill="#FFFFFF" d="M176.97,377.74h-14.84l-3.73-8.96h-21.65l-3.55,8.96h-14.46l28.74-65.69L176.97,377.74z M147.29,341.91
		l-6.44,15.96h12.97L147.29,341.91z"/>
	<path fill="#FFFFFF" d="M249.73,328.85c-0.84-0.1-0.93-0.19-7.74-0.56h-0.28h-8.02v26.13c-0.09,4.85,0.37,15.95,1.03,23.33h-15.49
		c0.47-4.29,1.12-19.5,1.12-22.86v-26.69h-6.25c-2.52,0-4.29,0.09-9.7,0.47l0.09-13.16h45.26V328.85z"/>
	<path fill="#FFFFFF" d="M339.19,325.86c4.85,5.88,7.19,12.69,7.19,20.81c0,17.36-14.93,32.29-32.1,32.29
		c-17.08,0-31.45-14.84-31.45-32.38c0-8.4,3.26-16.33,9.24-22.67c5.78-6.16,14.09-9.62,22.86-9.62
		C324.26,314.28,333.03,318.49,339.19,325.86z M296.64,346.48c0,10.55,7.75,18.67,17.92,18.67c10.08,0,18.1-8.12,18.1-18.38
		c0-5.78-1.77-10.08-5.6-13.72c-3.36-3.08-8.02-5.04-12.32-5.04C304.57,328.01,296.64,336.12,296.64,346.48z"/>
	<path fill="#FFFFFF" d="M421,348.26l-0.09-21.28v-0.37c-0.37-6.81-0.47-10.45-0.56-10.92l13.91-0.19c-0.1,1.12-0.1,1.68-0.28,12.97
		v0.84v36.02v0.56c0.19,12.23,0.19,12.88,0.28,14.37l-36.12-36.21l-0.09,18.38c0,2.05,0.09,3.64,0.74,14.84v0.47h-13.15v-0.56
		l0.19-3.83v-3.73l-0.28-43.67v-0.47l-0.19-5.88l-0.09-5.41v-0.56L421,348.26z"/>
	<path fill="#FFFFFF" d="M490.68,315.5c-0.28,0.84-0.28,1.77-0.84,13.35v0.47l-0.37,36.95c0.19,4.67,0.37,7.56,0.84,11.48h-15.02
		c0.37-1.12,0.65-6.72,0.65-11.29l0.28-38.91c0-1.59-0.28-7.94-0.56-12.04H490.68z"/>
	<path fill="#FFFFFF" d="M531.05,319c0,4-3.25,7.25-7.25,7.25s-7.25-3.25-7.25-7.23c0-4.04,3.23-7.25,7.33-7.25
		C527.8,311.76,531.05,315.04,531.05,319z M518.04,319.02c0,3.19,2.57,5.8,5.72,5.8c3.15,0,5.7-2.59,5.7-5.8
		c0-3.17-2.55-5.8-5.62-5.8C520.59,313.22,518.04,315.76,518.04,319.02z M520.73,316.07c-0.04-0.64-0.06-0.99-0.08-1.05
		c1.05-0.23,1.99-0.35,2.73-0.35c2.2,0,3.88,1.29,3.88,2.94c0,0.92-0.48,1.78-1.37,2.51l1.78,2.01l-1.82,1.24l-2.79-3.52
		c0.27-0.07,0.6-0.21,0.91-0.42c0.74-0.48,1.05-0.91,1.05-1.55c0-0.73-0.6-1.29-1.43-1.29c-0.15,0-0.31,0.02-0.58,0.06
		c-0.02,0.19-0.04,0.83-0.04,1.53l-0.02,3.54c0.02,0.87,0.04,1.04,0.08,1.39h-2.38c0.02-0.1,0.04-0.23,0.06-0.7l0.04-0.83v-0.08
		l-0.02-5.34V316.07z"/>
</g>
<path fill="#FFFFFF" d="M329.53,266.78c8.56-17.88,42.91-86.58,51.83-103.65c-21.4,15.28-31.1,20.73-41.46,25.91
	c0,0-29.16,12.15-53.6,1.48c-25.7-11.22-47.83-21.55-60.42-27.39c-9.61,18.98-44.59,90.22-51.83,103.65
	c16.78-12.48,23.87-16.29,31.1-20.73c19.71-12.1,46.17-10.39,67.37-5.18C288.44,244.78,298.43,251.23,329.53,266.78z"/>
</svg>
