<svg id="Layer_1" data-name="Layer 1" xmlns="http://www.w3.org/2000/svg" xmlns:xlink="http://www.w3.org/1999/xlink" viewBox="0 0 942.91 925.79"><defs><style>.cls-1,.cls-3,.cls-4{fill:none;}.cls-2{clip-path:url(#clip-path);}.cls-3,.cls-4{stroke:aqua;stroke-miterlimit:10;}.cls-3{stroke-width:1.62px;}.cls-4{stroke-width:1.62px;}</style><clipPath id="clip-path" transform="translate(184.36 182.09)"><rect class="cls-1" x="32.5" y="55.5" width="513" height="463"/></clipPath></defs><title>textura</title><g class="cls-2"><path class="cls-3" d="M-183.95,152c14.15-8.17,19.82,1.65,34-6.52s8.48-18,22.63-26.16,19.82,1.65,34-6.52,8.48-18,22.63-26.16,19.82,1.65,34-6.52,8.49-18,22.64-26.16,19.82,1.65,34-6.52,8.49-18,22.64-26.16,19.82,1.65,34-6.52,8.48-18,22.64-26.17,19.82,1.65,34-6.52,8.48-18,22.64-26.16,19.82,1.65,34-6.52,8.48-18,22.63-26.16,19.82,1.65,34-6.52,8.49-18,22.64-26.16,19.83,1.64,34-6.53,8.48-18,22.64-26.16,19.82,1.65,34-6.53,8.48-18,22.64-26.16,19.82,1.64,34-6.53" transform="translate(184.36 182.09)"/><path class="cls-3" d="M-179.73,159.27c14.15-8.17,19.82,1.65,34-6.52s8.48-18,22.63-26.16,19.82,1.65,34-6.52,8.48-18,22.63-26.16,19.82,1.65,34-6.52,8.48-18,22.63-26.16,19.82,1.65,34-6.53,8.48-18,22.63-26.16,19.82,1.65,34-6.52S89.15,4,103.3-4.14s19.82,1.65,34-6.52,8.49-18,22.64-26.16,19.82,1.65,34-6.52,8.48-18,22.63-26.16,19.82,1.65,34-6.53,8.48-18,22.63-26.16,19.83,1.65,34-6.52,8.49-18,22.64-26.17,19.83,1.65,34-6.52,8.49-18,22.64-26.17,19.83,1.65,34-6.52" transform="translate(184.36 182.09)"/><path class="cls-3" d="M-175.51,166.56c14.15-8.16,19.82,1.65,34-6.52s8.48-18,22.63-26.15,19.82,1.65,34-6.52,8.49-18,22.64-26.16,19.82,1.65,34-6.53,8.48-18,22.64-26.16,19.82,1.65,34-6.52,8.48-18,22.63-26.16,19.82,1.65,34-6.52,8.48-18,22.63-26.16,19.82,1.65,34-6.52,8.48-18,22.63-26.17S184-27.88,198.1-36s8.48-18,22.64-26.16,19.82,1.65,34-6.52,8.48-18,22.64-26.16,19.82,1.65,34-6.53,8.49-18,22.64-26.16,19.83,1.65,34-6.52,8.49-18,22.64-26.17,19.83,1.65,34-6.53" transform="translate(184.36 182.09)"/><path class="cls-4" d="M-171.29,173.86c14.15-8.17,19.82,1.65,34-6.52s8.49-18,22.64-26.16,19.82,1.65,34-6.52,8.48-18,22.63-26.16,19.82,1.65,34-6.52,8.49-18,22.64-26.16,19.82,1.65,34-6.52,8.48-18,22.64-26.16,19.82,1.65,34-6.52,8.48-18,22.63-26.17,19.83,1.65,34-6.52,8.48-18,22.63-26.16,19.82,1.65,34-6.52,8.49-18,22.64-26.16,19.82,1.65,34-6.52,8.49-18,22.64-26.16,19.82,1.64,34-6.53,8.48-18,22.64-26.16,19.82,1.65,34-6.53,8.49-18,22.65-26.16,19.82,1.64,34-6.53" transform="translate(184.36 182.09)"/><path class="cls-3" d="M-167.06,181.16c14.15-8.17,19.82,1.65,34-6.52s8.48-18,22.63-26.16,19.82,1.65,34-6.52S-68,124-53.86,115.8s19.82,1.65,34-6.52,8.49-18,22.64-26.16,19.82,1.65,34-6.53,8.49-18,22.64-26.16,19.82,1.65,34-6.52,8.48-18,22.64-26.16,19.82,1.65,34-6.52,8.48-18,22.64-26.16,19.82,1.65,34-6.52,8.48-18,22.63-26.16,19.82,1.65,34-6.53,8.49-18,22.64-26.16,19.83,1.65,34-6.52,8.48-18,22.64-26.17,19.82,1.65,34-6.52,8.48-18,22.64-26.17,19.83,1.65,34-6.52" transform="translate(184.36 182.09)"/><path class="cls-3" d="M-162.84,188.45c14.15-8.17,19.82,1.65,34-6.52s8.48-18,22.63-26.15,19.82,1.65,34-6.52,8.48-18,22.63-26.16,19.83,1.64,34-6.53S-7.18,98.58,7,90.41s19.82,1.65,34-6.52,8.48-18,22.63-26.16,19.82,1.65,34-6.52,8.49-18,22.64-26.16,19.82,1.65,34-6.52,8.49-18,22.64-26.17,19.82,1.65,34-6.52,8.48-18,22.63-26.16,19.82,1.65,34-6.52S275.86-64.83,290-73s19.83,1.65,34-6.53,8.49-18,22.64-26.16,19.83,1.65,34-6.52,8.49-18,22.64-26.17,19.83,1.65,34-6.53" transform="translate(184.36 182.09)"/><path class="cls-3" d="M-158.62,195.75c14.15-8.17,19.82,1.65,34-6.52s8.48-18,22.63-26.16,19.82,1.65,34-6.52,8.49-18,22.64-26.16,19.82,1.65,34-6.52,8.48-18,22.64-26.16,19.82,1.65,34-6.52S53.65,73.2,67.8,65s19.82,1.65,34-6.52,8.48-18,22.63-26.17,19.82,1.65,34-6.52S166.87,7.83,181-.34s19.82,1.65,34-6.52,8.48-18,22.64-26.16,19.82,1.65,34-6.52,8.48-18,22.64-26.16,19.82,1.64,34-6.53,8.49-18,22.64-26.16,19.83,1.64,34-6.53,8.49-18,22.64-26.16,19.83,1.64,34-6.53" transform="translate(184.36 182.09)"/><path class="cls-3" d="M-154.4,203.05c14.16-8.17,19.82,1.65,34-6.52s8.48-18,22.63-26.16,19.82,1.65,34-6.52,8.48-18,22.63-26.16,19.82,1.65,34-6.52,8.49-18,22.64-26.16,19.82,1.64,34-6.53,8.48-18,22.64-26.16S91.85,74,106,65.8s8.48-18,22.63-26.16,19.83,1.65,34-6.52,8.48-18,22.64-26.16,19.81,1.65,34-6.52,8.49-18,22.64-26.16,19.82,1.65,34-6.53,8.49-18,22.64-26.16,19.82,1.65,34-6.52,8.48-18,22.64-26.17,19.82,1.65,34-6.52,8.49-18,22.65-26.17,19.82,1.65,34-6.52" transform="translate(184.36 182.09)"/><path class="cls-3" d="M-150.17,210.34c14.15-8.17,19.82,1.65,34-6.52s8.48-18,22.63-26.15,19.82,1.64,34-6.52,8.48-18,22.63-26.16,19.82,1.64,34-6.53,8.49-18,22.64-26.16,19.82,1.65,34-6.52,8.49-18,22.64-26.16,19.82,1.65,34-6.52,8.48-18,22.64-26.16,19.82,1.65,34-6.52,8.48-18,22.64-26.17,19.82,1.65,34-6.52,8.48-18,22.63-26.16,19.82,1.65,34-6.52,8.49-18,22.64-26.16,19.83,1.65,34-6.53,8.49-18,22.64-26.16,19.82,1.65,34-6.52,8.48-18,22.64-26.17,19.83,1.65,34-6.53" transform="translate(184.36 182.09)"/><path class="cls-3" d="M-145.95,217.64c14.15-8.17,19.82,1.65,34-6.52s8.48-18,22.63-26.16,19.82,1.65,34-6.52,8.48-18,22.63-26.16,19.83,1.65,34-6.52,8.48-18,22.63-26.16,19.82,1.65,34-6.52,8.48-18,22.63-26.16,19.82,1.65,34-6.53,8.49-18,22.64-26.16,19.82,1.65,34-6.52,8.49-18,22.64-26.16,19.82,1.65,34-6.52,8.48-18,22.63-26.16,19.83,1.65,34-6.52,8.48-18,22.64-26.17,19.82,1.65,34-6.52,8.49-18,22.64-26.16,19.83,1.64,34-6.53,8.49-18,22.64-26.16,19.83,1.64,34-6.53" transform="translate(184.36 182.09)"/><path class="cls-4" d="M-141.73,224.94c14.15-8.17,19.82,1.65,34-6.52s8.48-18,22.63-26.16,19.82,1.65,34-6.52,8.49-18,22.64-26.16,19.82,1.65,34-6.52,8.48-18,22.64-26.16,19.82,1.64,34-6.53,8.48-18,22.63-26.16,19.83,1.65,34-6.52,8.48-18,22.63-26.16,19.82,1.65,34-6.52,8.48-18,22.63-26.16,19.82,1.65,34-6.52,8.48-18,22.64-26.16,19.82,1.64,34-6.53,8.48-18,22.64-26.16S331-34.87,345.1-43s8.49-18,22.64-26.17,19.83,1.65,34-6.52,8.49-18,22.65-26.17,19.82,1.65,34-6.52" transform="translate(184.36 182.09)"/><path class="cls-3" d="M-137.51,232.23c14.16-8.17,19.82,1.65,34-6.52s8.48-18,22.63-26.16,19.82,1.65,34-6.52,8.48-18,22.63-26.15,19.82,1.64,34-6.53,8.49-18,22.64-26.16,19.82,1.65,34-6.52,8.48-18,22.64-26.16,19.82,1.65,34-6.52,8.48-18,22.63-26.16,19.83,1.65,34-6.53,8.48-18,22.64-26.16,19.81,1.65,34-6.52,8.48-18,22.63-26.16,19.82,1.65,34-6.52,8.49-18,22.64-26.16,19.82,1.65,34-6.53,8.48-18,22.64-26.16,19.82,1.65,34-6.52,8.49-18,22.65-26.17,19.82,1.65,34-6.53" transform="translate(184.36 182.09)"/><path class="cls-3" d="M-133.28,239.53c14.15-8.17,19.82,1.65,34-6.52s8.48-18,22.63-26.16,19.82,1.65,34-6.52,8.48-18,22.63-26.16,19.82,1.65,34-6.52,8.49-18,22.64-26.16,19.82,1.65,34-6.52S79,117,93.14,108.81s19.82,1.65,34-6.53,8.48-18,22.64-26.16,19.82,1.65,34-6.52,8.48-18,22.64-26.16,19.82,1.65,34-6.52,8.48-18,22.63-26.16,19.82,1.65,34-6.52,8.49-18,22.64-26.17,19.83,1.65,34-6.52,8.49-18,22.64-26.16,19.82,1.64,34-6.53,8.48-18,22.64-26.16,19.83,1.64,34-6.53" transform="translate(184.36 182.09)"/><path class="cls-3" d="M-129.06,246.83c14.15-8.17,19.82,1.65,34-6.52s8.48-18,22.63-26.16,19.82,1.65,34-6.52,8.48-18,22.64-26.16S4,183.12,18.12,175s8.48-18,22.63-26.16,19.82,1.64,34-6.53,8.48-18,22.63-26.16,19.82,1.65,34-6.52,8.49-18,22.64-26.16,19.82,1.65,34-6.52,8.49-18,22.64-26.16,19.82,1.65,34-6.52,8.48-18,22.63-26.16,19.83,1.64,34-6.53,8.48-18,22.64-26.16,19.82,1.65,34-6.52,8.49-18,22.64-26.17,19.83,1.65,34-6.52S422.88-71.83,437-80s19.83,1.65,34-6.52" transform="translate(184.36 182.09)"/><path class="cls-3" d="M-124.84,254.12c14.15-8.17,19.82,1.65,34-6.52s8.48-18,22.63-26.16,19.82,1.65,34-6.52,8.48-18,22.63-26.15,19.82,1.64,34-6.53,8.48-18,22.64-26.16,19.82,1.65,34-6.52,8.48-18,22.63-26.16,19.83,1.65,34-6.52,8.48-18,22.63-26.16,19.82,1.65,34-6.53,8.48-18,22.63-26.16,19.82,1.65,34-6.52,8.49-18,22.64-26.16,19.82,1.65,34-6.52S313.86.84,328-7.33s19.82,1.65,34-6.53,8.48-18,22.64-26.16,19.82,1.65,34-6.52,8.49-18,22.65-26.17,19.82,1.65,34-6.53" transform="translate(184.36 182.09)"/><path class="cls-3" d="M-120.61,261.42c14.15-8.17,19.82,1.65,34-6.52s8.48-18,22.63-26.16,19.82,1.65,34-6.52,8.48-18,22.63-26.16,19.82,1.65,34-6.52,8.49-18,22.64-26.16,19.82,1.65,34-6.52,8.48-18,22.64-26.16,19.82,1.65,34-6.53,8.48-18,22.63-26.16,19.83,1.65,34-6.52,8.48-18,22.64-26.16,19.82,1.65,34-6.52,8.48-18,22.63-26.16,19.82,1.65,34-6.52,8.49-18,22.64-26.17,19.82,1.65,34-6.52,8.48-18,22.64-26.16,19.82,1.64,34-6.53,8.48-18,22.64-26.16,19.82,1.64,34-6.53" transform="translate(184.36 182.09)"/><path class="cls-3" d="M-116.39,268.72c14.15-8.17,19.82,1.65,34-6.52s8.48-18,22.63-26.16,19.82,1.65,34-6.52,8.48-18,22.63-26.16,19.82,1.65,34-6.52,8.48-18,22.63-26.16,19.82,1.64,34-6.53,8.49-18,22.64-26.16,19.82,1.65,34-6.52,8.49-18,22.64-26.16,19.82,1.65,34-6.52,8.49-18,22.64-26.16,19.82,1.65,34-6.52,8.48-18,22.63-26.16,19.82,1.64,34-6.53,8.48-18,22.63-26.16,19.83,1.65,34-6.52,8.49-18,22.64-26.17,19.82,1.65,34-6.52,8.48-18,22.64-26.17,19.83,1.65,34-6.52" transform="translate(184.36 182.09)"/><path class="cls-3" d="M-112.17,276c14.15-8.17,19.82,1.65,34-6.52s8.48-18,22.63-26.16,19.82,1.65,34-6.52,8.48-18,22.64-26.16,19.82,1.65,34-6.52,8.48-18,22.63-26.16,19.83,1.65,34-6.52,8.48-18,22.63-26.16,19.82,1.65,34-6.52,8.49-18,22.64-26.16,19.82,1.65,34-6.53,8.49-18,22.64-26.16,19.82,1.65,34-6.52,8.48-18,22.63-26.16,19.83,1.65,34-6.52,8.48-18,22.64-26.16,19.82,1.65,34-6.53,8.49-18,22.64-26.16,19.83,1.65,34-6.52,8.49-18,22.64-26.17,19.83,1.65,34-6.53" transform="translate(184.36 182.09)"/><path class="cls-3" d="M-107.95,283.31c14.15-8.17,19.82,1.65,34-6.52s8.48-18,22.64-26.16,19.82,1.65,34-6.52,8.48-18,22.63-26.16,19.82,1.65,34-6.52,8.48-18,22.64-26.16,19.82,1.65,34-6.52,8.48-18,22.63-26.16,19.83,1.64,34-6.53,8.48-18,22.63-26.16,19.82,1.65,34-6.52,8.48-18,22.63-26.16,19.82,1.65,34-6.52,8.49-18,22.64-26.16,19.82,1.65,34-6.52,8.48-18,22.64-26.17,19.82,1.65,34-6.52,8.48-18,22.64-26.16,19.82,1.64,34-6.53,8.49-18,22.65-26.16,19.82,1.64,34-6.53" transform="translate(184.36 182.09)"/><path class="cls-3" d="M-103.72,290.61c14.15-8.17,19.82,1.65,34-6.52s8.48-18,22.63-26.16,19.82,1.65,34-6.52,8.48-18,22.63-26.16,19.82,1.65,34-6.52,8.49-18,22.64-26.16,19.82,1.64,34-6.53,8.48-18,22.64-26.16,19.82,1.65,34-6.52,8.48-18,22.64-26.16,19.82,1.65,34-6.52,8.48-18,22.64-26.16,19.82,1.65,34-6.52,8.48-18,22.63-26.16,19.82,1.64,34-6.53,8.49-18,22.64-26.16,19.82,1.65,34-6.52,8.48-18,22.64-26.17,19.82,1.65,34-6.52,8.48-18,22.64-26.17,19.82,1.65,34-6.52" transform="translate(184.36 182.09)"/><path class="cls-3" d="M-99.5,297.9c14.15-8.17,19.82,1.65,34-6.52s8.48-18,22.63-26.16,19.82,1.65,34-6.52,8.48-18,22.63-26.16,19.82,1.65,34-6.52,8.48-18,22.63-26.16,19.82,1.65,34-6.52,8.49-18,22.64-26.16,19.82,1.65,34-6.52,8.49-18,22.64-26.16,19.82,1.65,34-6.53,8.49-18,22.64-26.16,19.82,1.65,34-6.52,8.48-18,22.63-26.16,19.82,1.65,34-6.52,8.48-18,22.63-26.16,19.83,1.65,34-6.53,8.49-18,22.64-26.16,19.82,1.65,34-6.52,8.48-18,22.64-26.17,19.83,1.65,34-6.53" transform="translate(184.36 182.09)"/><path class="cls-3" d="M-95.28,305.2c14.15-8.17,19.82,1.65,34-6.52s8.48-18,22.63-26.16,19.82,1.65,34-6.52,8.48-18,22.64-26.16,19.82,1.65,34-6.52,8.48-18,22.63-26.16,19.83,1.65,34-6.52,8.48-18,22.63-26.16,19.82,1.64,34-6.53,8.48-18,22.63-26.16,19.82,1.65,34-6.52,8.49-18,22.64-26.16,19.82,1.65,34-6.52,8.48-18,22.63-26.16,19.83,1.65,34-6.52,8.48-18,22.64-26.17,19.82,1.65,34-6.52,8.49-18,22.64-26.16,19.83,1.64,34-6.53,8.49-18,22.64-26.16,19.83,1.64,34-6.53" transform="translate(184.36 182.09)"/><path class="cls-4" d="M-91.06,312.5c14.15-8.17,19.82,1.65,34-6.52s8.49-18,22.64-26.16,19.82,1.65,34-6.52,8.48-18,22.63-26.16,19.82,1.65,34-6.52,8.48-18,22.64-26.17,19.82,1.65,34-6.52,8.48-18,22.63-26.16,19.83,1.65,34-6.52,8.48-18,22.63-26.16,19.82,1.65,34-6.52,8.48-18,22.63-26.16,19.82,1.65,34-6.52,8.49-18,22.64-26.16,19.82,1.64,34-6.53,8.49-18,22.64-26.16,19.82,1.65,34-6.52,8.48-18,22.64-26.17,19.82,1.65,34-6.52,8.49-18,22.65-26.17,19.82,1.65,34-6.52" transform="translate(184.36 182.09)"/><path class="cls-3" d="M-86.83,319.79c14.15-8.17,19.82,1.65,34-6.52s8.48-18,22.63-26.16,19.82,1.65,34-6.52,8.48-18,22.63-26.16,19.82,1.65,34-6.52,8.49-18,22.64-26.16,19.82,1.65,34-6.52,8.49-18,22.64-26.16,19.82,1.65,34-6.52,8.48-18,22.64-26.16,19.82,1.64,34-6.53,8.48-18,22.64-26.16,19.82,1.65,34-6.52,8.48-18,22.63-26.16,19.82,1.65,34-6.52,8.49-18,22.64-26.16,19.82,1.65,34-6.53,8.48-18,22.64-26.16,19.82,1.65,34-6.52S465.1,1.13,479.26-7s19.82,1.65,34-6.53" transform="translate(184.36 182.09)"/><path class="cls-3" d="M-82.61,327.09c14.15-8.17,19.82,1.65,34-6.52s8.48-18,22.63-26.16,19.82,1.65,34-6.52,8.48-18,22.63-26.16,19.82,1.65,34-6.52,8.48-18,22.63-26.16,19.82,1.65,34-6.52,8.49-18,22.64-26.16,19.82,1.64,34-6.53,8.49-18,22.64-26.16,19.82,1.65,34-6.52,8.49-18,22.64-26.16,19.82,1.65,34-6.52,8.48-18,22.63-26.16,19.82,1.65,34-6.52,8.48-18,22.63-26.17,19.83,1.65,34-6.52,8.49-18,22.64-26.16,19.82,1.64,34-6.53,8.49-18,22.64-26.16,19.83,1.64,34-6.53" transform="translate(184.36 182.09)"/><path class="cls-3" d="M-78.39,334.39c14.15-8.17,19.82,1.65,34-6.52s8.48-18,22.63-26.16,19.82,1.65,34-6.52,8.49-18,22.64-26.16,19.82,1.65,34-6.52,8.48-18,22.63-26.17,19.83,1.65,34-6.52,8.48-18,22.63-26.16,19.82,1.65,34-6.52,8.48-18,22.63-26.16,19.82,1.65,34-6.52,8.49-18,22.64-26.16,19.82,1.65,34-6.52,8.48-18,22.64-26.16,19.82,1.64,34-6.53,8.48-18,22.64-26.16,19.82,1.65,34-6.52,8.49-18,22.64-26.17,19.83,1.65,34-6.52,8.49-18,22.64-26.17,19.83,1.65,34-6.52" transform="translate(184.36 182.09)"/><path class="cls-3" d="M-74.17,341.68c14.15-8.17,19.82,1.65,34-6.52s8.49-18,22.64-26.16,19.82,1.65,34-6.52,8.48-18,22.63-26.16S58.86,278,73,269.8s8.48-18,22.64-26.16,19.82,1.65,34-6.52,8.48-18,22.64-26.16,19.82,1.65,34-6.52,8.48-18,22.63-26.16,19.82,1.64,34-6.53,8.48-18,22.63-26.16,19.82,1.65,34-6.52,8.49-18,22.64-26.16,19.82,1.65,34-6.52,8.49-18,22.64-26.16,19.82,1.64,34-6.53,8.48-18,22.64-26.16,19.82,1.65,34-6.53,8.49-18,22.65-26.16,19.82,1.65,34-6.53" transform="translate(184.36 182.09)"/><path class="cls-3" d="M-69.94,349c14.15-8.17,19.82,1.65,34-6.52s8.48-18,22.63-26.16,19.82,1.65,34-6.52,8.48-18,22.63-26.16,19.82,1.65,34-6.52,8.49-18,22.64-26.16,19.82,1.65,34-6.52,8.49-18,22.64-26.16,19.82,1.64,34-6.53,8.48-18,22.64-26.16,19.82,1.65,34-6.52,8.48-18,22.64-26.16,19.82,1.65,34-6.52,8.48-18,22.63-26.16,19.82,1.65,34-6.52,8.49-18,22.64-26.17,19.82,1.65,34-6.52,8.48-18,22.64-26.16,19.82,1.64,34-6.53,8.48-18,22.64-26.16,19.82,1.64,34-6.53" transform="translate(184.36 182.09)"/><path class="cls-3" d="M-65.72,356.28c14.15-8.17,19.82,1.65,34-6.52s8.48-18,22.63-26.16,19.82,1.65,34-6.52,8.48-18,22.63-26.16,19.82,1.65,34-6.52,8.48-18,22.63-26.17,19.82,1.65,34-6.52,8.49-18,22.64-26.16,19.82,1.65,34-6.52,8.49-18,22.64-26.16,19.82,1.65,34-6.52,8.49-18,22.64-26.16,19.82,1.64,34-6.52,8.48-18,22.63-26.17,19.82,1.65,34-6.52,8.48-18,22.63-26.16,19.83,1.65,34-6.52,8.49-18,22.64-26.17,19.82,1.65,34-6.52,8.49-18,22.64-26.17,19.83,1.65,34-6.52" transform="translate(184.36 182.09)"/><path class="cls-3" d="M-61.5,363.57c14.15-8.17,19.82,1.65,34-6.52s8.48-18,22.63-26.16,19.82,1.65,34-6.52,8.49-18,22.64-26.16,19.82,1.65,34-6.52,8.48-18,22.64-26.16,19.82,1.65,34-6.52,8.48-18,22.63-26.16,19.82,1.65,34-6.52,8.48-18,22.63-26.16,19.82,1.64,34-6.53,8.49-18,22.64-26.16,19.82,1.65,34-6.52,8.48-18,22.64-26.16,19.82,1.65,34-6.52,8.48-18,22.64-26.16,19.82,1.64,34-6.53,8.49-18,22.64-26.16,19.83,1.65,34-6.53,8.49-18,22.64-26.16,19.83,1.65,34-6.53" transform="translate(184.36 182.09)"/><path class="cls-3" d="M-57.28,370.87c14.15-8.17,19.82,1.65,34-6.52s8.49-18,22.64-26.16,19.82,1.65,34-6.52,8.48-18,22.63-26.16,19.82,1.65,34-6.52,8.48-18,22.64-26.16,19.82,1.65,34-6.52,8.48-18,22.64-26.16,19.82,1.64,34-6.53,8.48-18,22.63-26.16,19.83,1.65,34-6.52,8.48-18,22.63-26.16,19.82,1.65,34-6.52,8.49-18,22.64-26.16,19.82,1.65,34-6.52,8.49-18,22.64-26.17,19.82,1.65,34-6.52,8.48-18,22.64-26.16,19.82,1.64,34-6.53,8.49-18,22.65-26.16,19.82,1.64,34-6.53" transform="translate(184.36 182.09)"/><path class="cls-3" d="M-53,378.17c14.15-8.17,19.82,1.65,34-6.52s8.48-18,22.63-26.16,19.82,1.65,34-6.52S46,321,60.15,312.81s19.82,1.65,34-6.52,8.49-18,22.64-26.17,19.82,1.65,34-6.52,8.49-18,22.64-26.16,19.82,1.65,34-6.52,8.48-18,22.64-26.16,19.82,1.65,34-6.52,8.48-18,22.64-26.17,19.82,1.65,34-6.51,8.48-18,22.63-26.17,19.82,1.65,34-6.52,8.49-18,22.64-26.16,19.83,1.65,34-6.52,8.48-18,22.64-26.17,19.82,1.65,34-6.52,8.48-18,22.64-26.17,19.82,1.65,34-6.52" transform="translate(184.36 182.09)"/><path class="cls-3" d="M-48.83,385.46c14.15-8.17,19.82,1.65,34-6.52s8.48-18,22.63-26.16,19.82,1.65,34-6.52,8.48-18,22.63-26.16,19.82,1.65,34-6.52,8.48-18,22.63-26.16,19.82,1.65,34-6.52,8.48-18,22.63-26.16,19.82,1.65,34-6.52,8.49-18,22.64-26.16,19.82,1.64,34-6.53,8.49-18,22.64-26.16,19.82,1.65,34-6.52,8.48-18,22.63-26.16,19.82,1.65,34-6.52,8.48-18,22.63-26.16,19.83,1.64,34-6.53,8.49-18,22.64-26.16,19.82,1.65,34-6.53,8.49-18,22.64-26.16,19.83,1.65,34-6.53" transform="translate(184.36 182.09)"/><path class="cls-3" d="M-44.61,392.76c14.15-8.17,19.82,1.65,34-6.52s8.48-18,22.63-26.16,19.82,1.65,34-6.52,8.49-18,22.64-26.16,19.82,1.65,34-6.52,8.48-18,22.64-26.16,19.82,1.65,34-6.52,8.48-18,22.63-26.17,19.82,1.65,34-6.52,8.48-18,22.63-26.16,19.82,1.65,34-6.52,8.48-18,22.63-26.16,19.82,1.65,34-6.52,8.48-18,22.64-26.16,19.82,1.65,34-6.52,8.48-18,22.64-26.17,19.82,1.65,34-6.52,8.49-18,22.64-26.16,19.83,1.64,34-6.53,8.49-18,22.64-26.16,19.83,1.64,34-6.53" transform="translate(184.36 182.09)"/><path class="cls-3" d="M-40.39,400.06c14.15-8.17,19.82,1.65,34-6.52s8.49-18,22.64-26.16,19.82,1.65,34-6.52,8.48-18,22.63-26.16,19.82,1.65,34-6.52,8.49-18,22.64-26.17,19.82,1.65,34-6.52,8.48-18,22.64-26.16,19.82,1.65,34-6.52,8.48-18,22.63-26.16,19.83,1.65,34-6.52,8.48-18,22.63-26.17,19.82,1.65,34-6.52,8.49-18,22.64-26.16,19.82,1.65,34-6.52,8.49-18,22.64-26.16,19.82,1.65,34-6.52,8.48-18,22.64-26.17,19.82,1.65,34-6.52,8.49-18,22.65-26.17,19.82,1.65,34-6.52" transform="translate(184.36 182.09)"/><path class="cls-3" d="M-36.16,407.35c14.15-8.17,19.82,1.65,34-6.52s8.48-18,22.63-26.16,19.82,1.65,34-6.52S62.89,350.16,77,342s19.82,1.65,34-6.52,8.49-18,22.64-26.16,19.82,1.65,34-6.52,8.49-18,22.64-26.16,19.82,1.65,34-6.52,8.48-18,22.64-26.16,19.82,1.64,34-6.53,8.48-18,22.64-26.16,19.82,1.65,34-6.52,8.48-18,22.63-26.16,19.82,1.65,34-6.52,8.49-18,22.64-26.16,19.83,1.64,34-6.53,8.48-18,22.64-26.16,19.82,1.65,34-6.53,8.48-18,22.64-26.16,19.83,1.65,34-6.53" transform="translate(184.36 182.09)"/><path class="cls-3" d="M-31.94,414.65c14.15-8.17,19.82,1.65,34-6.52s8.48-18,22.63-26.16,19.82,1.65,34-6.52,8.48-18,22.63-26.16,19.83,1.65,34-6.52,8.48-18,22.63-26.16,19.82,1.65,34-6.52,8.48-18,22.63-26.17,19.82,1.65,34-6.52,8.49-18,22.64-26.16,19.82,1.65,34-6.52,8.49-18,22.64-26.16,19.82,1.65,34-6.52,8.48-18,22.63-26.16,19.82,1.65,34-6.52,8.48-18,22.63-26.17,19.83,1.65,34-6.52,8.49-18,22.64-26.16,19.83,1.64,34-6.53S520,96,534.15,87.82s19.83,1.64,34-6.53" transform="translate(184.36 182.09)"/><path class="cls-3" d="M-27.72,422c14.15-8.17,19.82,1.65,34-6.52s8.48-18,22.63-26.16,19.82,1.65,34-6.52,8.49-18,22.64-26.16,19.82,1.65,34-6.52,8.48-18,22.64-26.17,19.82,1.65,34-6.52,8.48-18,22.63-26.16,19.82,1.65,34-6.52,8.48-18,22.63-26.16,19.82,1.65,34-6.52,8.48-18,22.63-26.17,19.82,1.65,34-6.52,8.48-18,22.64-26.16,19.82,1.65,34-6.52,8.48-18,22.64-26.16,19.82,1.65,34-6.52,8.49-18,22.64-26.17,19.83,1.65,34-6.52,8.49-18,22.64-26.17,19.83,1.65,34-6.52" transform="translate(184.36 182.09)"/><path class="cls-3" d="M-23.5,429.24c14.16-8.17,19.82,1.65,34-6.52s8.48-18,22.63-26.16,19.82,1.65,34-6.52,8.48-18,22.63-26.16,19.82,1.65,34-6.52,8.49-18,22.64-26.16,19.82,1.65,34-6.52,8.48-18,22.64-26.16,19.82,1.65,34-6.52,8.48-18,22.63-26.16,19.83,1.64,34-6.53,8.48-18,22.63-26.16,19.82,1.65,34-6.52,8.49-18,22.64-26.16,19.82,1.65,34-6.52,8.49-18,22.64-26.16,19.82,1.64,34-6.53,8.48-18,22.64-26.16,19.82,1.65,34-6.53,8.49-18,22.65-26.16,19.82,1.65,34-6.53" transform="translate(184.36 182.09)"/><path class="cls-3" d="M-19.27,436.54c14.15-8.17,19.82,1.65,34-6.52s8.48-18,22.63-26.16,19.82,1.65,34-6.52,8.48-18,22.63-26.16,19.82,1.65,34-6.52,8.49-18,22.64-26.16,19.82,1.65,34-6.52,8.49-18,22.64-26.17,19.82,1.65,34-6.52,8.48-18,22.64-26.16,19.82,1.65,34-6.52,8.48-18,22.64-26.16,19.82,1.65,34-6.52,8.48-18,22.63-26.16,19.82,1.65,34-6.52,8.49-18,22.64-26.17,19.83,1.65,34-6.52,8.48-18,22.64-26.16,19.82,1.64,34-6.53,8.48-18,22.64-26.16,19.83,1.64,34-6.53" transform="translate(184.36 182.09)"/><path class="cls-3" d="M-15,443.84c14.15-8.17,19.82,1.65,34-6.52s8.48-18,22.63-26.16,19.82,1.65,34-6.52,8.48-18,22.63-26.16,19.83,1.65,34-6.52,8.48-18,22.63-26.17,19.82,1.65,34-6.52,8.48-18,22.63-26.16,19.82,1.65,34-6.52,8.49-18,22.64-26.16,19.82,1.65,34-6.52,8.49-18,22.64-26.17,19.82,1.65,34-6.52,8.48-18,22.63-26.16,19.83,1.65,34-6.52,8.48-18,22.64-26.16,19.82,1.65,34-6.52,8.49-18,22.64-26.17,19.83,1.65,34-6.52,8.49-18,22.64-26.17,19.83,1.65,34-6.52" transform="translate(184.36 182.09)"/><path class="cls-3" d="M-10.83,451.13c14.15-8.17,19.82,1.65,34-6.52s8.48-18,22.63-26.16,19.82,1.65,34-6.52,8.49-18,22.64-26.16,19.82,1.65,34-6.52,8.48-18,22.64-26.16,19.82,1.65,34-6.52,8.48-18,22.63-26.16,19.83,1.65,34-6.52,8.48-18,22.63-26.16,19.82,1.64,34-6.53,8.48-18,22.63-26.16,19.82,1.65,34-6.52,8.48-18,22.64-26.16,19.82,1.65,34-6.52,8.48-18,22.64-26.16,19.82,1.64,34-6.53,8.49-18,22.64-26.16,19.83,1.65,34-6.53,8.49-18,22.65-26.16,19.82,1.64,34-6.53" transform="translate(184.36 182.09)"/><path class="cls-3" d="M-6.61,458.43c14.16-8.17,19.82,1.65,34-6.52s8.48-18,22.63-26.16,19.82,1.65,34-6.52,8.48-18,22.63-26.16,19.82,1.65,34-6.52,8.49-18,22.64-26.16,19.82,1.65,34-6.52,8.48-18,22.64-26.17,19.82,1.65,34-6.52,8.48-18,22.63-26.16,19.83,1.65,34-6.52,8.48-18,22.64-26.16,19.81,1.65,34-6.52,8.49-18,22.64-26.16,19.82,1.65,34-6.52,8.49-18,22.64-26.17,19.82,1.65,34-6.52,8.48-18,22.64-26.17,19.82,1.65,34-6.52,8.49-18,22.65-26.16,19.82,1.64,34-6.53" transform="translate(184.36 182.09)"/><path class="cls-3" d="M-2.38,465.73c14.15-8.17,19.82,1.65,34-6.52s8.48-18,22.63-26.16,19.82,1.65,34-6.52,8.48-18,22.63-26.16,19.82,1.65,34-6.52,8.49-18,22.64-26.17,19.82,1.65,34-6.52,8.49-18,22.64-26.16,19.82,1.65,34-6.52,8.48-18,22.64-26.16,19.82,1.65,34-6.52,8.48-18,22.64-26.17,19.82,1.65,34-6.52,8.48-18,22.63-26.16,19.82,1.65,34-6.52,8.49-18,22.64-26.16,19.83,1.65,34-6.52,8.49-18,22.64-26.17,19.82,1.65,34-6.52,8.48-18,22.64-26.17,19.83,1.65,34-6.52" transform="translate(184.36 182.09)"/><path class="cls-3" d="M1.84,473c14.15-8.17,19.82,1.65,34-6.52s8.48-18,22.63-26.16,19.82,1.65,34-6.52,8.48-18,22.64-26.16,19.82,1.65,34-6.52,8.48-18,22.63-26.16,19.82,1.65,34-6.52,8.48-18,22.63-26.16,19.82,1.65,34-6.52,8.49-18,22.64-26.17,19.82,1.65,34-6.52,8.49-18,22.64-26.16,19.82,1.65,34-6.52,8.48-18,22.63-26.16,19.83,1.65,34-6.52,8.48-18,22.64-26.16,19.82,1.64,34-6.53,8.49-18,22.64-26.16,19.83,1.65,34-6.53,8.49-18,22.64-26.16,19.83,1.64,34-6.53" transform="translate(184.36 182.09)"/><path class="cls-3" d="M6.06,480.32c14.15-8.17,19.82,1.65,34-6.52s8.48-18,22.63-26.16,19.82,1.65,34-6.52,8.48-18,22.63-26.16,19.82,1.65,34-6.52,8.48-18,22.64-26.16,19.82,1.65,34-6.52,8.48-18,22.63-26.17,19.83,1.65,34-6.52,8.48-18,22.63-26.16,19.82,1.65,34-6.52,8.48-18,22.63-26.16,19.82,1.65,34-6.52,8.49-18,22.64-26.16,19.82,1.65,34-6.52,8.48-18,22.64-26.17,19.82,1.65,34-6.52,8.48-18,22.64-26.17,19.82,1.65,34-6.52,8.49-18,22.65-26.17,19.82,1.65,34-6.52" transform="translate(184.36 182.09)"/><path class="cls-3" d="M10.29,487.62c14.15-8.17,19.82,1.64,34-6.52s8.48-18,22.63-26.16,19.82,1.65,34-6.52,8.48-18,22.63-26.16,19.82,1.65,34-6.52,8.49-18,22.64-26.17,19.82,1.65,34-6.52,8.48-18,22.64-26.16,19.82,1.65,34-6.52,8.48-18,22.63-26.16,19.83,1.65,34-6.52,8.48-18,22.64-26.17,19.82,1.65,34-6.52,8.48-18,22.63-26.16,19.82,1.65,34-6.52,8.49-18,22.64-26.16,19.82,1.65,34-6.52,8.48-18,22.64-26.17,19.82,1.65,34-6.52,8.48-18,22.64-26.17,19.82,1.65,34-6.53" transform="translate(184.36 182.09)"/><path class="cls-3" d="M14.51,494.91c14.15-8.17,19.82,1.65,34-6.52s8.48-18,22.63-26.16,19.82,1.65,34-6.52,8.48-18,22.63-26.16,19.82,1.65,34-6.52,8.48-18,22.63-26.16,19.82,1.65,34-6.52,8.49-18,22.64-26.16,19.82,1.65,34-6.52,8.49-18,22.64-26.17,19.82,1.65,34-6.52,8.49-18,22.64-26.16,19.82,1.65,34-6.52,8.48-18,22.63-26.16,19.82,1.65,34-6.52,8.48-18,22.63-26.16,19.83,1.64,34-6.53,8.49-18,22.64-26.16,19.82,1.65,34-6.53,8.48-18,22.64-26.16,19.83,1.64,34-6.53" transform="translate(184.36 182.09)"/><path class="cls-3" d="M18.73,502.21c14.15-8.17,19.82,1.65,34-6.52s8.48-18,22.63-26.16,19.82,1.65,34-6.52,8.48-18,22.64-26.16,19.82,1.65,34-6.52,8.48-18,22.63-26.16,19.82,1.65,34-6.52,8.48-18,22.63-26.17,19.82,1.65,34-6.52,8.49-18,22.64-26.16,19.82,1.65,34-6.52,8.49-18,22.64-26.16,19.82,1.65,34-6.52,8.48-18,22.63-26.16,19.83,1.65,34-6.52,8.48-18,22.64-26.17,19.82,1.65,34-6.52,8.49-18,22.64-26.17,19.83,1.65,34-6.52,8.49-18,22.64-26.17,19.83,1.65,34-6.52" transform="translate(184.36 182.09)"/><path class="cls-3" d="M23,509.51c14.15-8.17,19.82,1.64,34-6.53s8.48-18,22.64-26.15,19.81,1.65,34-6.52,8.48-18,22.63-26.16,19.82,1.65,34-6.53,8.48-18,22.64-26.16,19.82,1.65,34-6.52,8.48-18,22.63-26.16,19.83,1.65,34-6.52,8.48-18,22.63-26.16,19.82,1.65,34-6.52,8.48-18,22.63-26.17,19.82,1.65,34-6.52,8.49-18,22.64-26.16,19.82,1.65,34-6.52,8.48-18,22.64-26.16,19.82,1.65,34-6.53,8.48-18,22.64-26.16,19.82,1.65,34-6.52,8.49-18,22.65-26.17,19.82,1.65,34-6.53" transform="translate(184.36 182.09)"/><path class="cls-3" d="M27.18,516.8c14.15-8.17,19.82,1.65,34-6.52s8.48-18,22.63-26.16,19.82,1.65,34-6.52,8.48-18,22.63-26.16,19.82,1.65,34-6.52,8.49-18,22.64-26.16,19.82,1.65,34-6.52,8.48-18,22.64-26.16,19.82,1.65,34-6.52,8.48-18,22.63-26.17,19.83,1.65,34-6.52,8.48-18,22.64-26.16,19.82,1.65,34-6.52,8.48-18,22.63-26.16,19.82,1.65,34-6.52,8.49-18,22.64-26.16,19.82,1.64,34-6.53,8.48-18,22.64-26.16,19.82,1.65,34-6.53,8.48-18,22.64-26.16,19.82,1.64,34-6.53" transform="translate(184.36 182.09)"/><path class="cls-3" d="M31.4,524.1c14.15-8.17,19.82,1.65,34-6.52s8.48-18,22.63-26.16,19.82,1.65,34-6.52,8.48-18,22.63-26.16,19.82,1.65,34-6.52,8.48-18,22.63-26.16,19.82,1.65,34-6.53,8.49-18,22.64-26.16,19.82,1.65,34-6.52,8.49-18,22.64-26.16,19.82,1.65,34-6.52,8.49-18,22.64-26.16,19.82,1.65,34-6.52,8.48-18,22.63-26.16,19.82,1.65,34-6.53,8.48-18,22.63-26.16,19.83,1.65,34-6.52,8.49-18,22.64-26.17,19.82,1.65,34-6.52,8.48-18,22.64-26.17,19.83,1.65,34-6.52" transform="translate(184.36 182.09)"/><path class="cls-3" d="M35.62,531.39c14.15-8.16,19.82,1.65,34-6.52s8.48-18,22.63-26.15,19.82,1.65,34-6.52,8.48-18,22.64-26.16,19.82,1.65,34-6.53,8.48-18,22.63-26.16,19.83,1.65,34-6.52,8.48-18,22.63-26.16,19.82,1.65,34-6.52,8.48-18,22.63-26.16,19.82,1.65,34-6.52,8.49-18,22.64-26.17,19.82,1.65,34-6.52,8.48-18,22.63-26.16,19.83,1.65,34-6.52,8.48-18,22.64-26.16,19.82,1.65,34-6.53,8.49-18,22.64-26.16,19.83,1.65,34-6.52,8.49-18,22.64-26.17,19.83,1.65,34-6.53" transform="translate(184.36 182.09)"/><path class="cls-3" d="M39.84,538.69c14.15-8.17,19.82,1.65,34-6.52s8.48-18,22.64-26.16,19.82,1.65,34-6.52,8.48-18,22.63-26.16,19.82,1.65,34-6.52,8.48-18,22.64-26.16,19.82,1.65,34-6.52,8.48-18,22.63-26.16,19.83,1.65,34-6.52,8.48-18,22.63-26.17,19.82,1.65,34-6.52,8.48-18,22.63-26.16,19.82,1.65,34-6.52,8.49-18,22.64-26.16,19.82,1.65,34-6.52,8.48-18,22.64-26.16,19.82,1.64,34-6.53,8.48-18,22.64-26.16,19.82,1.65,34-6.53,8.49-18,22.65-26.16,19.82,1.64,34-6.53" transform="translate(184.36 182.09)"/><path class="cls-3" d="M44.07,546c14.15-8.17,19.82,1.65,34-6.52s8.48-18,22.63-26.16,19.82,1.65,34-6.52,8.48-18,22.63-26.16,19.82,1.65,34-6.52,8.49-18,22.64-26.16,19.82,1.65,34-6.53,8.49-18,22.64-26.16,19.82,1.65,34-6.52,8.48-18,22.64-26.16,19.82,1.65,34-6.52,8.48-18,22.64-26.16,19.82,1.65,34-6.52,8.48-18,22.63-26.16,19.82,1.65,34-6.53,8.49-18,22.64-26.16,19.82,1.65,34-6.52,8.48-18,22.64-26.17,19.82,1.65,34-6.52,8.48-18,22.64-26.17,19.82,1.65,34-6.52" transform="translate(184.36 182.09)"/><path class="cls-3" d="M48.29,553.28c14.15-8.17,19.82,1.65,34-6.52s8.48-18,22.63-26.15,19.82,1.65,34-6.52,8.48-18,22.63-26.16,19.82,1.64,34-6.53,8.48-18,22.63-26.16,19.82,1.65,34-6.52,8.49-18,22.64-26.16,19.82,1.65,34-6.52,8.49-18,22.64-26.16,19.82,1.65,34-6.52,8.49-18,22.64-26.17,19.82,1.65,34-6.52,8.48-18,22.63-26.16,19.82,1.65,34-6.52,8.48-18,22.63-26.16,19.83,1.65,34-6.53,8.49-18,22.64-26.16,19.82,1.65,34-6.52,8.49-18,22.64-26.17,19.83,1.65,34-6.53" transform="translate(184.36 182.09)"/><path class="cls-3" d="M52.51,560.58c14.15-8.17,19.82,1.65,34-6.52s8.48-18,22.63-26.16,19.82,1.65,34-6.52,8.49-18,22.64-26.16,19.82,1.65,34-6.52,8.48-18,22.63-26.16,19.83,1.65,34-6.52,8.48-18,22.63-26.16,19.82,1.65,34-6.52,8.48-18,22.63-26.17,19.82,1.65,34-6.52,8.49-18,22.64-26.16,19.82,1.65,34-6.52,8.48-18,22.63-26.16,19.83,1.65,34-6.52,8.48-18,22.64-26.16,19.82,1.64,34-6.53,8.49-18,22.64-26.16,19.83,1.64,34-6.53,8.49-18,22.64-26.16,19.83,1.64,34-6.53" transform="translate(184.36 182.09)"/><path class="cls-3" d="M56.73,567.88c14.15-8.17,19.82,1.65,34-6.52s8.49-18,22.64-26.16,19.82,1.65,34-6.52,8.48-18,22.63-26.16,19.82,1.65,34-6.52,8.48-18,22.64-26.16,19.82,1.64,34-6.53,8.48-18,22.64-26.16,19.82,1.65,34-6.52,8.48-18,22.63-26.16,19.82,1.65,34-6.52,8.48-18,22.63-26.16,19.82,1.65,34-6.52,8.49-18,22.64-26.16,19.82,1.65,34-6.53,8.49-18,22.64-26.16,19.82,1.65,34-6.52,8.48-18,22.64-26.17,19.82,1.65,34-6.52,8.49-18,22.65-26.17,19.82,1.65,34-6.52" transform="translate(184.36 182.09)"/><path class="cls-3" d="M61,575.17c14.15-8.17,19.82,1.65,34-6.52s8.48-18,22.63-26.15,19.82,1.64,34-6.52,8.48-18,22.63-26.16,19.82,1.64,34-6.53,8.49-18,22.64-26.16,19.82,1.65,34-6.52,8.49-18,22.64-26.16,19.82,1.65,34-6.52,8.48-18,22.64-26.16,19.82,1.65,34-6.52,8.48-18,22.64-26.17,19.82,1.65,34-6.52,8.48-18,22.63-26.16,19.82,1.65,34-6.52,8.49-18,22.64-26.16,19.82,1.65,34-6.53,8.48-18,22.64-26.16,19.82,1.65,34-6.52,8.48-18,22.64-26.17,19.82,1.65,34-6.53" transform="translate(184.36 182.09)"/><path class="cls-3" d="M65.18,582.47c14.15-8.17,19.82,1.65,34-6.52s8.48-18,22.63-26.16,19.82,1.65,34-6.52,8.48-18,22.63-26.16,19.82,1.65,34-6.52,8.48-18,22.63-26.16,19.82,1.65,34-6.52,8.49-18,22.64-26.16,19.82,1.65,34-6.53,8.49-18,22.64-26.16,19.82,1.65,34-6.52,8.49-18,22.64-26.16,19.82,1.65,34-6.52,8.48-18,22.63-26.16,19.82,1.65,34-6.52,8.48-18,22.63-26.17,19.83,1.65,34-6.52,8.49-18,22.64-26.16,19.82,1.64,34-6.53,8.49-18,22.64-26.16,19.83,1.64,34-6.53" transform="translate(184.36 182.09)"/><path class="cls-3" d="M69.4,589.77c14.15-8.17,19.82,1.65,34-6.52s8.48-18,22.63-26.16,19.82,1.65,34-6.52,8.49-18,22.64-26.16,19.82,1.65,34-6.52,8.48-18,22.64-26.16,19.82,1.64,34-6.53,8.48-18,22.63-26.16,19.82,1.65,34-6.52,8.48-18,22.63-26.16,19.82,1.65,34-6.52,8.49-18,22.64-26.16,19.82,1.65,34-6.52,8.48-18,22.64-26.16,19.82,1.64,34-6.53,8.48-18,22.64-26.16,19.82,1.65,34-6.52,8.49-18,22.64-26.17,19.83,1.65,34-6.52,8.49-18,22.64-26.17,19.83,1.65,34-6.52" transform="translate(184.36 182.09)"/><path class="cls-3" d="M73.62,597.06c14.15-8.17,19.82,1.65,34-6.52s8.49-18,22.64-26.15,19.82,1.64,34-6.53,8.48-18,22.63-26.15,19.82,1.64,34-6.53,8.48-18,22.64-26.16,19.82,1.65,34-6.52,8.48-18,22.64-26.16,19.82,1.65,34-6.52,8.48-18,22.63-26.16,19.82,1.65,34-6.53,8.48-18,22.63-26.16,19.82,1.65,34-6.52,8.49-18,22.64-26.16,19.82,1.65,34-6.52,8.49-18,22.64-26.16,19.82,1.65,34-6.53,8.48-18,22.64-26.16,19.82,1.65,34-6.52,8.49-18,22.65-26.17,19.82,1.65,34-6.53" transform="translate(184.36 182.09)"/><path class="cls-3" d="M77.85,604.36c14.15-8.17,19.82,1.65,34-6.52s8.48-18,22.63-26.16,19.82,1.65,34-6.52,8.48-18,22.63-26.16,19.82,1.65,34-6.52,8.49-18,22.64-26.16,19.82,1.65,34-6.52,8.49-18,22.64-26.16,19.82,1.65,34-6.53,8.48-18,22.64-26.16,19.82,1.65,34-6.52,8.48-18,22.64-26.16,19.82,1.65,34-6.52,8.48-18,22.63-26.16,19.82,1.65,34-6.52,8.49-18,22.64-26.17,19.83,1.65,34-6.52,8.48-18,22.64-26.16,19.82,1.64,34-6.53,8.48-18,22.64-26.16,19.82,1.64,34-6.53" transform="translate(184.36 182.09)"/><path class="cls-3" d="M82.07,611.66c14.15-8.17,19.82,1.65,34-6.52s8.48-18,22.63-26.16,19.82,1.65,34-6.52,8.48-18,22.63-26.16,19.82,1.65,34-6.52,8.48-18,22.63-26.16,19.82,1.64,34-6.53,8.48-18,22.63-26.16,19.82,1.65,34-6.52,8.49-18,22.64-26.16,19.82,1.65,34-6.52,8.49-18,22.64-26.16,19.82,1.65,34-6.52,8.48-18,22.63-26.16,19.82,1.64,34-6.53,8.48-18,22.63-26.16,19.83,1.65,34-6.52,8.49-18,22.64-26.17,19.82,1.65,34-6.52,8.49-18,22.64-26.17,19.83,1.65,34-6.52" transform="translate(184.36 182.09)"/><path class="cls-3" d="M86.29,619c14.15-8.17,19.82,1.65,34-6.52s8.48-18,22.63-26.16,19.82,1.65,34-6.52,8.49-18,22.64-26.15,19.82,1.64,34-6.53,8.48-18,22.64-26.16,19.82,1.65,34-6.52,8.48-18,22.63-26.16,19.82,1.65,34-6.52,8.48-18,22.63-26.16,19.82,1.65,34-6.53,8.48-18,22.63-26.16,19.82,1.65,34-6.52,8.48-18,22.64-26.16,19.82,1.65,34-6.52,8.48-18,22.64-26.16,19.82,1.65,34-6.53,8.49-18,22.64-26.16,19.83,1.65,34-6.52,8.49-18,22.64-26.17,19.83,1.65,34-6.53" transform="translate(184.36 182.09)"/><path class="cls-3" d="M90.51,626.25c14.15-8.17,19.82,1.65,34-6.52s8.49-18,22.64-26.16,19.82,1.65,34-6.52,8.48-18,22.63-26.16,19.82,1.65,34-6.52,8.49-18,22.64-26.16,19.82,1.65,34-6.52,8.48-18,22.64-26.16,19.82,1.65,34-6.53,8.48-18,22.63-26.16,19.83,1.65,34-6.52,8.48-18,22.63-26.16,19.82,1.65,34-6.52,8.49-18,22.64-26.16,19.82,1.65,34-6.52,8.49-18,22.64-26.17,19.82,1.65,34-6.52,8.48-18,22.64-26.16,19.82,1.64,34-6.53,8.49-18,22.65-26.16,19.82,1.64,34-6.53" transform="translate(184.36 182.09)"/><path class="cls-3" d="M94.74,633.55c14.15-8.17,19.82,1.65,34-6.52s8.48-18,22.63-26.16,19.82,1.65,34-6.52,8.48-18,22.63-26.16,19.82,1.65,34-6.52,8.49-18,22.64-26.16,19.82,1.64,34-6.53,8.49-18,22.64-26.16,19.82,1.65,34-6.52,8.48-18,22.64-26.16,19.82,1.65,34-6.52,8.48-18,22.64-26.16,19.82,1.65,34-6.52,8.48-18,22.63-26.16,19.82,1.64,34-6.53,8.49-18,22.64-26.16,19.83,1.65,34-6.52,8.48-18,22.64-26.17,19.82,1.65,34-6.52,8.48-18,22.64-26.17,19.82,1.65,34-6.52" transform="translate(184.36 182.09)"/><path class="cls-3" d="M99,640.84c14.15-8.17,19.82,1.65,34-6.52s8.48-18,22.63-26.16,19.82,1.65,34-6.52,8.48-18,22.63-26.16,19.83,1.65,34-6.52,8.48-18,22.63-26.16,19.82,1.65,34-6.52,8.48-18,22.63-26.16,19.82,1.65,34-6.52,8.49-18,22.64-26.16,19.82,1.65,34-6.53,8.49-18,22.64-26.16,19.82,1.65,34-6.52,8.48-18,22.63-26.16,19.82,1.65,34-6.52,8.48-18,22.63-26.16,19.83,1.65,34-6.53,8.49-18,22.64-26.16,19.83,1.65,34-6.52,8.49-18,22.64-26.17,19.83,1.65,34-6.53" transform="translate(184.36 182.09)"/><path class="cls-3" d="M103.18,648.14c14.15-8.17,19.82,1.65,34-6.52s8.48-18,22.63-26.16,19.82,1.65,34-6.52,8.49-18,22.64-26.16,19.82,1.65,34-6.52,8.48-18,22.64-26.16,19.82,1.65,34-6.52,8.48-18,22.63-26.16,19.82,1.64,34-6.53,8.48-18,22.63-26.16,19.82,1.65,34-6.52,8.48-18,22.63-26.16,19.82,1.65,34-6.52,8.48-18,22.64-26.16,19.82,1.65,34-6.52,8.48-18,22.64-26.17,19.82,1.65,34-6.52,8.49-18,22.64-26.16,19.83,1.64,34-6.53,8.49-18,22.64-26.16,19.83,1.64,34-6.53" transform="translate(184.36 182.09)"/><path class="cls-3" d="M107.4,655.44c14.16-8.17,19.82,1.65,34-6.52s8.48-18,22.63-26.16,19.82,1.65,34-6.52,8.48-18,22.63-26.16,19.82,1.65,34-6.52,8.49-18,22.64-26.16,19.82,1.64,34-6.53,8.48-18,22.64-26.16,19.82,1.65,34-6.52,8.48-18,22.63-26.16,19.83,1.65,34-6.52,8.48-18,22.63-26.16,19.82,1.65,34-6.52,8.49-18,22.64-26.16,19.82,1.64,34-6.53,8.49-18,22.64-26.16,19.82,1.65,34-6.52,8.48-18,22.64-26.17,19.82,1.65,34-6.52,8.49-18,22.65-26.17,19.82,1.65,34-6.52" transform="translate(184.36 182.09)"/><path class="cls-3" d="M111.63,662.73c14.15-8.17,19.82,1.65,34-6.52s8.48-18,22.63-26.16,19.82,1.65,34-6.52,8.48-18,22.63-26.16,19.82,1.65,34-6.52,8.49-18,22.64-26.16,19.82,1.65,34-6.52,8.49-18,22.64-26.16,19.82,1.65,34-6.52,8.48-18,22.64-26.16,19.82,1.65,34-6.53,8.48-18,22.64-26.16,19.82,1.65,34-6.52,8.48-18,22.63-26.16,19.82,1.65,34-6.52,8.49-18,22.64-26.16,19.83,1.65,34-6.53,8.48-18,22.64-26.16,19.82,1.65,34-6.52,8.48-18,22.64-26.17,19.83,1.65,34-6.53" transform="translate(184.36 182.09)"/><path class="cls-3" d="M115.85,670c14.15-8.17,19.82,1.65,34-6.52s8.48-18,22.63-26.16,19.82,1.65,34-6.52,8.48-18,22.63-26.16,19.83,1.65,34-6.52,8.48-18,22.63-26.16,19.82,1.65,34-6.52,8.48-18,22.63-26.16,19.82,1.64,34-6.53,8.49-18,22.64-26.16,19.82,1.65,34-6.52,8.49-18,22.64-26.16,19.82,1.65,34-6.52,8.48-18,22.63-26.16,19.82,1.65,34-6.52,8.48-18,22.64-26.17,19.82,1.65,34-6.52,8.49-18,22.64-26.16,19.83,1.64,34-6.53,8.49-18,22.64-26.16,19.83,1.64,34-6.53" transform="translate(184.36 182.09)"/><path class="cls-3" d="M120.07,677.33c14.15-8.17,19.82,1.65,34-6.52s8.48-18,22.63-26.16,19.82,1.65,34-6.52,8.49-18,22.64-26.16,19.82,1.65,34-6.52,8.48-18,22.64-26.17,19.82,1.65,34-6.52,8.48-18,22.63-26.16,19.82,1.65,34-6.52,8.48-18,22.63-26.16,19.82,1.65,34-6.52,8.48-18,22.63-26.16,19.82,1.65,34-6.52,8.48-18,22.64-26.16,19.82,1.64,34-6.53,8.48-18,22.64-26.16,19.82,1.65,34-6.52,8.49-18,22.64-26.17,19.83,1.65,34-6.52,8.49-18,22.65-26.17,19.82,1.65,34-6.52" transform="translate(184.36 182.09)"/><path class="cls-3" d="M124.29,684.62c14.16-8.17,19.82,1.65,34-6.52s8.48-18,22.63-26.16,19.82,1.65,34-6.52,8.48-18,22.63-26.16,19.82,1.65,34-6.52,8.49-18,22.64-26.16,19.82,1.65,34-6.52,8.48-18,22.64-26.16,19.82,1.65,34-6.52,8.48-18,22.63-26.16,19.83,1.65,34-6.53,8.48-18,22.64-26.16,19.81,1.65,34-6.52,8.49-18,22.64-26.16,19.82,1.65,34-6.52,8.49-18,22.64-26.16,19.82,1.65,34-6.53,8.48-18,22.64-26.16,19.82,1.65,34-6.52,8.49-18,22.65-26.17,19.82,1.65,34-6.53" transform="translate(184.36 182.09)"/><path class="cls-3" d="M128.52,691.92c14.15-8.17,19.82,1.65,34-6.52s8.48-18,22.63-26.16,19.82,1.65,34-6.52,8.48-18,22.63-26.16,19.82,1.65,34-6.52,8.49-18,22.64-26.16,19.82,1.65,34-6.52,8.49-18,22.64-26.16,19.82,1.64,34-6.53,8.48-18,22.64-26.16,19.82,1.65,34-6.52,8.48-18,22.64-26.16,19.82,1.65,34-6.52,8.48-18,22.63-26.16,19.82,1.65,34-6.52,8.49-18,22.64-26.17,19.83,1.65,34-6.52,8.49-18,22.64-26.16,19.82,1.64,34-6.53,8.48-18,22.64-26.16,19.83,1.64,34-6.53" transform="translate(184.36 182.09)"/><path class="cls-3" d="M132.74,699.22c14.15-8.17,19.82,1.65,34-6.52s8.48-18,22.63-26.16,19.82,1.65,34-6.52,8.48-18,22.63-26.16,19.83,1.65,34-6.52,8.48-18,22.63-26.17,19.82,1.65,34-6.52,8.48-18,22.63-26.16,19.82,1.65,34-6.52,8.49-18,22.64-26.16,19.82,1.65,34-6.52,8.49-18,22.64-26.16,19.82,1.65,34-6.52,8.48-18,22.63-26.16,19.83,1.64,34-6.53,8.48-18,22.64-26.16,19.82,1.65,34-6.52,8.49-18,22.64-26.17,19.83,1.65,34-6.52,8.49-18,22.64-26.17,19.83,1.65,34-6.52" transform="translate(184.36 182.09)"/><path class="cls-3" d="M137,706.51c14.15-8.17,19.82,1.65,34-6.52s8.48-18,22.63-26.16,19.82,1.65,34-6.52,8.48-18,22.63-26.16,19.82,1.65,34-6.52,8.48-18,22.64-26.16,19.82,1.65,34-6.52,8.48-18,22.63-26.16,19.83,1.65,34-6.52,8.48-18,22.63-26.16,19.82,1.64,34-6.53,8.48-18,22.63-26.16,19.82,1.65,34-6.52,8.48-18,22.64-26.16,19.82,1.65,34-6.52,8.48-18,22.64-26.16,19.82,1.64,34-6.53,8.48-18,22.63-26.16,19.83,1.65,34-6.53,8.49-18,22.65-26.16,19.82,1.65,34-6.53" transform="translate(184.36 182.09)"/><path class="cls-3" d="M141.18,713.81c14.16-8.17,19.82,1.65,34-6.52s8.48-18,22.63-26.16,19.82,1.65,34-6.52,8.48-18,22.63-26.16,19.82,1.65,34-6.52,8.49-18,22.64-26.16,19.82,1.65,34-6.52,8.48-18,22.64-26.16,19.82,1.64,34-6.53,8.48-18,22.63-26.16,19.83,1.65,34-6.52,8.48-18,22.64-26.16,19.81,1.65,34-6.52,8.48-18,22.63-26.16,19.82,1.65,34-6.52,8.49-18,22.64-26.17,19.82,1.65,34-6.52,8.48-18,22.64-26.16,19.82,1.64,34-6.53,8.48-18,22.64-26.16,19.82,1.64,34-6.53" transform="translate(184.36 182.09)"/><path class="cls-3" d="M145.41,721.11c14.15-8.17,19.82,1.65,34-6.52s8.48-18,22.63-26.16,19.82,1.65,34-6.52,8.48-18,22.63-26.16,19.82,1.65,34-6.52,8.49-18,22.64-26.17,19.82,1.65,34-6.52,8.49-18,22.64-26.16,19.82,1.65,34-6.52,8.49-18,22.64-26.16,19.82,1.65,34-6.52,8.48-18,22.64-26.16,19.82,1.64,34-6.52,8.48-18,22.63-26.17,19.82,1.65,34-6.52,8.49-18,22.64-26.16,19.83,1.65,34-6.52,8.49-18,22.64-26.17,19.82,1.65,34-6.52,8.48-18,22.64-26.17,19.83,1.65,34-6.52" transform="translate(184.36 182.09)"/><path class="cls-3" d="M149.63,728.4c14.15-8.17,19.82,1.65,34-6.52s8.48-18,22.63-26.16,19.82,1.65,34-6.52,8.48-18,22.64-26.16,19.82,1.65,34-6.52,8.48-18,22.63-26.16,19.82,1.65,34-6.52,8.48-18,22.63-26.16,19.82,1.65,34-6.52,8.49-18,22.64-26.16,19.82,1.64,34-6.53,8.49-18,22.64-26.16,19.82,1.65,34-6.52,8.48-18,22.63-26.16,19.83,1.65,34-6.52,8.48-18,22.64-26.16,19.82,1.64,34-6.53,8.49-18,22.64-26.16,19.83,1.65,34-6.53,8.49-18,22.64-26.16,19.83,1.65,34-6.53" transform="translate(184.36 182.09)"/><path class="cls-3" d="M153.85,735.7c14.15-8.17,19.82,1.65,34-6.52s8.48-18,22.63-26.16,19.82,1.65,34-6.52,8.48-18,22.63-26.16,19.82,1.65,34-6.52,8.48-18,22.64-26.16,19.82,1.65,34-6.52,8.48-18,22.63-26.16,19.83,1.64,34-6.53,8.48-18,22.63-26.16,19.82,1.65,34-6.52,8.48-18,22.63-26.16,19.82,1.65,34-6.52,8.49-18,22.64-26.16,19.82,1.65,34-6.52,8.48-18,22.64-26.17,19.82,1.65,34-6.52,8.48-18,22.64-26.16,19.82,1.64,34-6.53,8.49-18,22.65-26.16,19.82,1.64,34-6.53" transform="translate(184.36 182.09)"/><path class="cls-3" d="M158.08,743c14.15-8.17,19.82,1.65,34-6.52s8.48-18,22.63-26.16,19.82,1.65,34-6.52,8.48-18,22.63-26.16,19.82,1.65,34-6.52,8.49-18,22.64-26.17,19.82,1.65,34-6.52,8.48-18,22.64-26.16,19.82,1.65,34-6.52,8.48-18,22.63-26.16,19.83,1.65,34-6.52,8.48-18,22.64-26.17,19.82,1.65,34-6.51,8.48-18,22.63-26.17,19.82,1.65,34-6.52,8.49-18,22.64-26.16,19.82,1.65,34-6.52,8.48-18,22.64-26.17,19.82,1.65,34-6.52,8.48-18,22.64-26.17,19.82,1.65,34-6.52" transform="translate(184.36 182.09)"/></g></svg>                         